<mxfile host="app.diagrams.net" agent="Mozilla/5.0 (Windows NT 10.0; Win64; x64) AppleWebKit/537.36 (KHTML, like Gecko) Chrome/126.0.0.0 Safari/537.36" version="24.7.4">
  <diagram name="Page-1" id="XrQV66ZbtWbBxb-Yr_br">
    <mxGraphModel dx="802" dy="983" grid="1" gridSize="10" guides="1" tooltips="1" connect="1" arrows="1" fold="1" page="1" pageScale="1" pageWidth="827" pageHeight="1169" math="0" shadow="0">
      <root>
        <mxCell id="0" />
        <mxCell id="1" parent="0" />
        <mxCell id="5FeZaFZ0WcY-pbNukDL8-1" value="Registered&amp;nbsp;&lt;div&gt;User&lt;/div&gt;" style="shape=umlActor;verticalLabelPosition=bottom;verticalAlign=top;html=1;outlineConnect=0;" vertex="1" parent="1">
          <mxGeometry x="30" y="110" width="30" height="60" as="geometry" />
        </mxCell>
        <mxCell id="5FeZaFZ0WcY-pbNukDL8-2" value="Venue Organizer" style="shape=umlFrame;whiteSpace=wrap;html=1;pointerEvents=0;width=290;height=40;" vertex="1" parent="1">
          <mxGeometry x="80" y="10" width="680" height="840" as="geometry" />
        </mxCell>
        <mxCell id="5FeZaFZ0WcY-pbNukDL8-5" value="Ask to re login" style="ellipse;whiteSpace=wrap;html=1;" vertex="1" parent="1">
          <mxGeometry x="390" y="105" width="140" height="70" as="geometry" />
        </mxCell>
        <mxCell id="5FeZaFZ0WcY-pbNukDL8-6" value="&lt;div&gt;&lt;br&gt;&lt;/div&gt;ext: if invalid username&lt;div&gt;password&lt;/div&gt;" style="html=1;shape=mxgraph.sysml.useCaseExtPt;whiteSpace=wrap;align=center;" vertex="1" parent="1">
          <mxGeometry x="150" y="100" width="160" height="80" as="geometry" />
        </mxCell>
        <mxCell id="5FeZaFZ0WcY-pbNukDL8-7" value="Login" style="resizable=0;html=1;verticalAlign=middle;align=center;labelBackgroundColor=none;fontStyle=1;" connectable="0" vertex="1" parent="5FeZaFZ0WcY-pbNukDL8-6">
          <mxGeometry x="80" y="17" as="geometry" />
        </mxCell>
      </root>
    </mxGraphModel>
  </diagram>
</mxfile>
